<svg width="233" height="539" viewBox="0 0 233 539" fill="none" xmlns="http://www.w3.org/2000/svg">
<g id="square">
<g id="hand">
<path id="Vector" d="M96.914 19.2518C98.941 17.7911 101.221 16.5332 103.782 16.488C107.638 16.42 110.359 19.0206 113.003 21.4507C114.52 22.8663 116.088 24.3097 116.926 26.2545C119.457 32.1315 121.016 51.3451 121.252 58.406L123.706 138.287C123.889 145.322 124.028 152.358 124.123 159.395C124.155 162.533 123.923 165.763 124.145 168.883C124.26 170.511 124.479 171.833 125.496 173.139C126.233 173.496 126.342 173.515 127.157 173.433C128.535 172.63 129.049 171.392 129.452 169.891C130.309 166.698 130.722 163.337 131.326 160.085L134.673 142.548L146.56 80.183L149.718 63.879C150.373 60.517 150.91 57.007 151.897 53.7281C153.144 48.5123 154.36 41.1234 159.04 37.7924C160.635 36.657 162.501 36.072 164.452 36.4427C168.046 37.1258 170.249 39.9105 172.22 42.7227C175.389 45.6246 177.085 49.6201 177.252 53.8928C177.581 62.295 176.123 73.347 175.535 82.009C174.216 101.429 173.091 120.818 171.086 140.186L167.807 172.053C166.382 186.108 165.113 197.064 166.138 211.333C167.626 209.035 169.15 206.739 170.37 204.284C172.262 200.476 173.643 196.428 175.437 192.575C180.418 181.872 188.127 170.926 200.366 168.26C203.206 167.641 205.908 167.754 208.763 167.513C209.745 167.536 210.121 167.523 210.826 168.288C211.035 168.515 211.228 168.757 211.426 168.993C213.048 170.778 214.038 173.304 213.875 175.74C213.451 182.074 207.358 186.838 206.872 190.598L205.512 192.372C201.662 197.83 201.361 209.236 199.897 215.938L199.374 217.478C199.36 218.305 199.287 219.131 199.455 219.944C199.557 220.731 199.76 221.344 199.286 222.071C199.167 222.253 198.936 222.408 198.763 222.538C198.702 222.616 198.635 222.689 198.581 222.773C197.117 225.05 195.724 232.479 194.863 235.463C192.371 244.107 189.282 252.472 187.129 261.23C184.725 271.007 183.269 281.002 180.624 290.735C178.603 297.996 176.21 305.132 173.446 312.143C170.682 319.154 167.561 326.003 164.084 332.69C160.172 340.283 154.915 347.437 152.464 355.69C149.144 366.866 150.369 381.163 150.671 392.813C151.273 416.185 152.799 439.497 155.249 462.748C157.327 482.53 159.951 502.34 164.645 521.693C158.239 525.759 150.278 528.667 143.079 531.03C109.555 542.038 72.066 540.379 40.384 524.392C42.239 509.423 44.366 494.496 46.059 479.504C48.8644 454.543 50.7907 429.514 51.838 404.418C52.548 385.474 52.812 366.193 50.682 347.338C49.24 334.578 45.973 322.051 43.254 309.516C39.4767 291.92 35.8494 274.293 32.372 256.635C29.572 242.166 26.914 227.554 25.125 212.919C24.417 207.123 24.231 201.265 23.669 195.452C23.018 188.728 21.957 182.029 21.005 175.342C17.607 151.456 12.929 126.707 15.848 102.567C15.863 101.643 15.991 100.807 16.27 99.921C17.056 97.426 18.247 94.93 20.696 93.705C20.9054 93.6023 21.119 93.5103 21.337 93.429C21.5557 93.347 21.7777 93.2763 22.003 93.217C22.2284 93.1577 22.456 93.1097 22.686 93.073C22.916 93.0363 23.1474 93.0113 23.38 92.998C23.6127 92.984 23.8457 92.982 24.079 92.992C24.3117 93.0013 24.5434 93.0223 24.774 93.055C25.0047 93.0877 25.2334 93.1317 25.46 93.187C25.686 93.2423 25.909 93.309 26.129 93.387C29.819 94.688 31.648 98.269 33.174 101.59L33.305 101.796L33.519 102.142C40.026 112.502 40.678 130.718 42.482 142.941C44.188 154.499 46.47 166 48.452 177.515L50.516 189.588C50.85 191.569 51.008 193.7 51.562 195.621C51.739 196.235 51.748 196.529 52.302 196.852C52.932 195.014 53.021 177.563 53.123 173.948L55.279 100.366C55.657 85.575 53.919 70.156 57.821 55.6905C58.68 52.3862 59.153 48.8644 60.482 45.7061C61.5 43.2885 63.093 41.5441 65.604 40.6445C67.737 39.88 70.194 39.976 72.241 40.9655C75.697 42.6365 76.878 46.4759 78.133 49.8057C79.713 53.2977 80.344 57.472 80.842 61.245C81.904 69.298 81.882 77.64 82.505 85.76L86.841 141.077C87.274 146.816 86.754 153.416 88.124 158.992C89.876 152.439 89.286 140.813 89.511 133.634L91.572 68.379L92.072 49.824C92.222 44.4133 92.189 38.6454 93.392 33.3526C94.122 28.638 94.914 23.6173 96.914 19.2518Z" fill="#FEAB8A"/>
<path id="Vector_2" d="M72.9 129.505C73.746 129.39 74.815 129.174 75.654 129.289C76.377 129.388 76.697 129.706 77.062 130.287L76.801 131.035C75.453 132.298 74.418 132.299 72.625 132.396C72.07 132.474 71.403 132.626 70.847 132.594C70.068 132.549 69.912 132.307 69.401 131.788C69.363 131.073 69.434 130.863 69.945 130.288C70.646 129.498 71.927 129.57 72.9 129.505Z" fill="#E3715A"/>
<path id="Vector_3" d="M36.934 159.292C37.357 159.295 37.872 159.463 38.293 159.547C38.857 160.064 38.906 160.054 39.017 160.803C37.918 162.41 33.975 162.967 32.084 163.452L31.27 163.426C30.706 163.104 30.363 162.953 30.008 162.385C29.726 161.935 29.858 161.849 29.96 161.373C31.452 160.071 34.95 159.677 36.934 159.292Z" fill="#E3715A"/>
<path id="Vector_4" d="M64.6119 133.907C67.1809 133.93 70.6369 133.587 73.0069 134.537C73.5259 135.181 73.4909 135.186 73.4739 136.021L72.9019 136.411C69.9849 136.723 67.0499 136.822 64.1199 136.958C64.1189 135.981 63.9689 134.693 64.6119 133.907Z" fill="#E3715A"/>
<path id="Vector_5" d="M108.506 115.659C110.552 115.463 113.46 115.362 115.421 116.068C116.174 116.339 116.388 116.616 116.747 117.303C116.695 118.005 116.631 118.379 116.254 118.978C114.402 119.017 112.407 119.168 110.573 118.926C109.417 118.774 108.754 118.513 108.057 117.57C107.974 116.721 108.091 116.4 108.506 115.659Z" fill="#E3715A"/>
<path id="Vector_6" d="M198.763 222.538C196.75 222.391 194.385 222.285 192.534 221.456C191.627 221.049 190.886 220.417 190.567 219.449C190.37 218.852 190.45 218.942 190.696 218.429C193.051 217.654 196.976 219.451 199.455 219.944C199.557 220.731 199.76 221.344 199.286 222.071C199.167 222.253 198.936 222.408 198.763 222.538Z" fill="#E3715A"/>
<path id="Vector_7" d="M32.8081 135.932C33.3851 135.871 33.5581 135.904 34.0931 136.063C34.3991 136.633 34.5981 136.991 34.6051 137.646C32.8651 139.464 27.1611 140.342 24.6341 141.185C23.7231 141.132 23.7361 141.114 23.0641 140.492C22.8611 139.688 22.8511 139.562 23.0891 138.771C24.9511 137.001 30.1821 136.64 32.8081 135.932Z" fill="#E3715A"/>
<path id="Vector_8" d="M52.0619 197.531C52.2819 197.594 52.6099 197.676 52.8009 197.793C53.3939 198.158 53.6459 198.711 53.7459 199.374C54.2199 202.52 51.9319 208.841 50.1389 211.397C49.4239 211.247 49.3169 211.221 48.7899 210.722C48.2599 208.493 50.8889 199.579 52.0619 197.531Z" fill="#E3715A"/>
<path id="Vector_9" d="M199.374 217.478C195.981 218.135 191.536 216.012 188.766 214.132C187.88 213.53 186.752 212.87 186.55 211.8C186.899 211.408 187.051 211.247 187.573 211.091C188.663 210.765 190.233 211.853 191.145 212.433C193.807 214.13 197.755 213.857 199.897 215.938L199.374 217.478Z" fill="#E3715A"/>
<path id="Vector_10" d="M153.418 117.994C151.869 117.724 148.757 117.548 147.667 116.356C147.369 116.03 147.469 115.697 147.46 115.286C148.13 114.569 148.664 114.357 149.657 114.326C152.599 114.234 157.402 115.32 160.048 116.53C160.348 117.435 160.122 117.998 159.949 118.925L153.418 117.994Z" fill="#E3715A"/>
<path id="Vector_11" d="M101.247 119.493C104.682 119.938 109.364 118.472 112.419 120.298C112.862 121.252 112.688 121.732 112.574 122.763C110.438 122.724 108.312 122.835 106.178 122.891C104.345 122.94 102.338 123.096 100.936 121.768C100.724 120.839 100.923 120.343 101.247 119.493Z" fill="#E3715A"/>
<path id="Vector_12" d="M40.2131 163.436L40.6321 163.508L41.0351 164.098C41.0451 164.642 41.1351 164.971 40.8701 165.469C40.0611 166.994 31.5951 169.155 29.4641 169.805C29.2771 169.604 29.0031 169.328 28.8721 169.094C28.4901 168.41 28.5231 168.128 28.7261 167.438C30.8391 165.361 37.1291 164.256 40.2131 163.436Z" fill="#E3715A"/>
<path id="Vector_13" d="M102.861 110.496C106.033 110.596 113.136 109.843 115.782 110.753C116.494 110.998 116.526 111.237 116.86 111.868C116.779 112.609 116.7 112.992 116.27 113.606C114.171 113.555 104.166 113.797 102.915 113.042C102.541 112.174 102.734 111.397 102.861 110.496Z" fill="#E3715A"/>
<path id="Vector_14" d="M38.4472 154.473C38.7392 154.402 38.8522 154.36 39.1822 154.358C40.0122 154.352 40.4772 154.618 41.0872 155.127C41.1842 155.548 41.3512 155.752 41.1022 156.15C39.8142 158.207 31.0662 159.629 28.5452 160.006L27.2242 160.032C26.5022 159.622 26.3452 159.546 25.9312 158.838L26.2021 158.112C28.3731 156.161 35.4182 155.192 38.4472 154.473Z" fill="#E3715A"/>
<path id="Vector_15" d="M80.9441 124.712L81.6041 124.584C81.8111 124.736 82.0931 124.923 82.2421 125.131C82.6781 125.738 82.6731 126.12 82.5931 126.803C82.2121 127.263 81.8761 127.514 81.2751 127.634C79.7301 127.944 77.8611 127.832 76.2721 127.9C72.9971 128.041 69.6881 128.235 66.4441 128.711C66.2531 128.715 66.0621 128.741 65.8711 128.725C65.0621 128.655 64.9372 128.463 64.4762 127.868C64.3772 127.105 64.3071 126.969 64.6501 126.295C67.1571 124.706 77.5951 124.825 80.9441 124.712Z" fill="#E3715A"/>
<path id="Vector_16" d="M153.418 117.994L159.949 118.925C159.992 119.48 160.044 119.888 160.203 120.428C161.223 120.393 162.173 120.344 163.051 120.971C163.689 121.427 163.671 121.478 163.778 122.212C162.466 125.078 158.121 121.957 155.897 123.145C156.446 123.916 157.093 124.315 157.175 125.283C156.543 125.715 156.028 125.734 155.278 125.717C152.804 125.66 147.444 125.3 145.58 123.461L145.668 122.899C147.859 121.127 149.402 122.635 151.582 121.821C151.672 121.167 151.679 121.418 151.609 120.783C151.594 120.639 151.572 120.495 151.554 120.351L152.09 119.722C152.708 119.445 153.058 119.249 153.5 118.733L153.418 117.994Z" fill="#E3715A"/>
<path id="Vector_17" d="M153.418 117.994L159.949 118.925C159.992 119.48 160.044 119.888 160.203 120.428L152.09 119.722C152.708 119.445 153.058 119.249 153.5 118.733L153.418 117.994Z" fill="#FD9781"/>
<path id="Vector_18" d="M208.763 167.513C209.745 167.536 210.121 167.523 210.826 168.288C211.035 168.515 211.228 168.757 211.426 168.993C211.386 169.071 211.348 169.149 211.306 169.225C208.314 174.682 200.588 177.184 202.791 184.812C203.586 187.565 205.555 188.389 206.872 190.598L205.512 192.372C204.728 191.856 203.925 191.336 203.22 190.713C201.048 188.79 199.574 186.121 199.411 183.201C199.063 176.974 204.859 171.728 208.763 167.513Z" fill="#E3715A"/>
<path id="Vector_19" d="M87.732 160.132C88.265 160.238 88.734 160.384 89.248 160.555C89.448 160.805 89.526 160.868 89.643 161.213C90.729 164.417 90.421 186.731 89.61 190.429C88.981 193.3 87.339 196.222 85.792 198.7C85.531 198.681 84.942 198.651 84.703 198.581C84.325 198.471 84.087 198.254 84.02 197.873C83.609 195.525 86.654 190.669 87.043 187.793C87.73 182.705 86.263 163.24 87.178 160.884C87.29 160.594 87.547 160.383 87.732 160.132Z" fill="#E3715A"/>
<path id="Vector_20" d="M211.426 168.993C213.048 170.778 214.038 173.304 213.875 175.74C213.451 182.074 207.358 186.838 206.872 190.598C205.555 188.389 203.586 187.565 202.791 184.812C200.588 177.184 208.314 174.682 211.306 169.225C211.348 169.149 211.386 169.071 211.426 168.993Z" fill="#FEAB8A"/>
<path id="Vector_21" d="M165.763 210.464C166.452 210.646 167.054 210.9 167.704 211.185C168.392 212.634 168.02 217.587 168.094 219.509C168.385 225.872 168.949 232.21 169.784 238.524C170.854 246.371 173.51 253.993 175.108 261.735C175.389 263.094 175.556 263.767 174.763 264.982C174.574 264.947 174.29 264.901 174.115 264.837C173.352 264.559 173.07 263.911 172.734 263.217C168.504 254.469 162.586 219.027 165.763 210.464Z" fill="#E3715A"/>
<path id="Vector_22" d="M15.8482 102.567C15.8632 101.643 15.9912 100.807 16.2702 99.921C17.0562 97.426 18.2472 94.93 20.6962 93.705C20.9055 93.6023 21.1192 93.5103 21.3372 93.429C21.5558 93.347 21.7778 93.2763 22.0032 93.217C22.2285 93.1576 22.4562 93.1096 22.6862 93.073C22.9162 93.0363 23.1475 93.0113 23.3802 92.998C23.6128 92.984 23.8458 92.982 24.0792 92.992C24.3118 93.0013 24.5435 93.0223 24.7742 93.055C25.0048 93.0876 25.2335 93.1316 25.4602 93.187C25.6862 93.2423 25.9092 93.309 26.1292 93.387C29.8192 94.688 31.6482 98.269 33.1742 101.59C32.6442 106.647 33.3192 113.313 28.9952 116.987C27.9512 117.874 26.6842 118.284 25.3232 118.124C23.0462 117.857 21.0742 116.424 19.7332 114.619C17.6222 111.781 15.7172 106.085 15.8482 102.567Z" fill="#E3715A"/>
<path id="Vector_23" d="M22.384 96.3261C23.276 96.1701 24.247 95.944 25.152 96.107C26.443 96.339 27.676 97.8691 28.263 98.9471C29.985 102.109 30.125 107.461 29.117 110.9C28.531 112.897 27.736 113.99 25.895 114.953C25.501 114.927 25.1 114.912 24.714 114.814C23.289 114.451 22.216 112.979 21.512 111.786C19.601 108.548 18.393 103.382 19.521 99.745C20.016 98.148 20.905 97.0781 22.384 96.3261Z" fill="#FEAB8A"/>
<path id="Vector_24" d="M151.897 53.7282C153.144 48.5124 154.36 41.1235 159.04 37.7925C160.635 36.6571 162.501 36.0721 164.452 36.4428C168.046 37.1259 170.249 39.9106 172.22 42.7228C172.629 48.5589 173.413 57.3281 169.325 62.1091C167.853 63.8311 165.629 64.9431 163.358 65.0341C161.014 65.1291 158.711 64.1661 157.035 62.5451C154.734 60.3191 153.27 54.6967 151.897 53.7282Z" fill="#E3715A"/>
<path id="Vector_25" d="M162.759 39.7211C164.055 39.7724 166.301 39.903 167.376 40.6598C168.415 41.3907 168.822 42.6438 169.072 43.8392C170.008 48.3145 169.892 56.1471 167.178 59.9521C166.027 61.5661 164.846 62.0401 162.95 62.4101C162.187 62.2701 161.42 62.1311 160.712 61.8011C158.72 60.8711 157.31 58.8651 156.665 56.8111C155.425 52.8622 156.585 47.0085 158.496 43.3843C159.6 41.29 160.512 40.433 162.759 39.7211Z" fill="#FEAB8A"/>
<path id="Vector_26" d="M57.821 55.6905C58.68 52.3862 59.153 48.8644 60.482 45.7061C61.5 43.2885 63.093 41.5441 65.604 40.6445C67.737 39.88 70.194 39.976 72.241 40.9655C75.697 42.6365 76.878 46.4759 78.133 49.8057C75.85 54.6647 79.9091 60.842 74.7861 68.085C71.5331 69.817 67.527 69.74 64.033 68.721C63.355 68.522 62.699 68.267 62.048 67.993C58.918 64.262 59.539 60.064 57.853 55.8141C57.837 55.7745 57.831 55.7317 57.821 55.6905Z" fill="#E3715A"/>
<path id="Vector_27" d="M67.3209 43.2639C68.7379 43.1935 70.0269 43.2299 71.2389 44.0643C73.3749 45.534 74.3359 48.2329 74.6989 50.6901C75.2469 54.4034 75.5269 62.158 73.0799 65.209C72.2119 66.291 70.4969 66.264 69.2149 66.398C68.0689 66.414 66.4969 66.491 65.4319 66.048C64.0119 65.456 62.9469 64.133 62.3729 62.739C60.6659 58.585 61.4459 51.92 63.1529 47.8431C64.1159 45.5419 64.9859 44.2212 67.3209 43.2639Z" fill="#FEAB8A"/>
<path id="Vector_28" d="M96.9141 19.2518C98.9411 17.7911 101.221 16.5332 103.782 16.488C107.638 16.42 110.359 19.0206 113.003 21.4507C112.934 21.6134 112.856 21.7726 112.795 21.9388C112.188 23.606 113.537 27.6759 113.77 29.5231C114.445 34.8824 113.377 42.8392 108.228 45.725C105.997 46.9756 103.835 47.1328 101.339 47.0028C98.4191 45.2997 96.1571 43.4751 95.2841 40.0283C94.7691 37.9967 94.9321 34.8069 93.3921 33.3526C94.1221 28.638 94.9141 23.6173 96.9141 19.2518Z" fill="#E3715A"/>
<path id="Vector_29" d="M103.267 19.3655C103.843 19.33 104.454 19.2736 105.025 19.3893C106.732 19.7349 108.3 21.3581 109.175 22.7808C111.478 26.5232 111.807 33.1302 110.71 37.3286C109.852 40.6109 107.904 42.4737 105.068 44.1082C103.964 44.2487 103.005 44.3139 101.974 43.8275C100.008 42.9005 98.804 41.1053 98.094 39.1091C96.43 34.4327 96.9071 27.1327 99.1531 22.7116C100.169 20.7113 101.188 20.09 103.267 19.3655Z" fill="#FEAB8A"/>
</g>
<g id="nails">
<path id="Ellipse 4" d="M31.7602 100.917C32.6266 111.518 30.1791 115.176 25.9752 115.519C21.7713 115.863 17.4029 112.762 16.5365 102.161L14.5011 77.2442L29.7204 76.0009L31.7602 100.917Z" fill="#F08080"/>
<path id="Ellipse 9" d="M112.934 28.1779C113.119 40.1662 110.124 44.0977 105.417 44.1703C100.71 44.2429 96.0733 40.429 95.8885 28.4407L95.4553 0.262798L112.496 0.000848525L112.934 28.1779Z" fill="#F08080"/>
<path id="Ellipse 12" d="M171.626 49.4328C169.9 60.4761 166.502 63.6107 162.127 62.9269C157.753 62.2432 154.059 58.0001 155.786 46.9568L159.844 21.0002L175.68 23.4762L171.626 49.4328Z" fill="#F08080"/>
<path id="Ellipse 10" d="M75.9356 53.269C76.1079 64.445 73.2909 68.1106 68.8642 68.1788C64.4374 68.2471 60.0772 64.6921 59.9049 53.5161L59.5012 27.2472L75.5272 27.0008L75.9356 53.269Z" fill="#F08080"/>
<path id="Ellipse 11" d="M221 174.5C212.861 186.798 207.268 191.881 203.714 189.24C200.161 186.6 199.299 181.472 205.966 172.5L222.639 151.703L232.139 158.703L221 174.5Z" fill="#F08080"/>
</g>
</g>
</svg>
