<svg width="278" height="621" viewBox="0 0 278 621" fill="none" xmlns="http://www.w3.org/2000/svg">
<g id="cardi b">
<g id="hand">
<path id="Vector" d="M89.414 101.249C91.441 99.7878 93.721 98.5299 96.282 98.4847C100.138 98.4167 102.859 101.017 105.503 103.447C107.02 104.863 108.588 106.306 109.426 108.251C111.957 114.128 113.516 133.342 113.752 140.403L116.206 220.284C116.389 227.319 116.528 234.355 116.623 241.392C116.655 244.53 116.423 247.76 116.645 250.88C116.76 252.508 116.979 253.83 117.996 255.136C118.733 255.493 118.842 255.512 119.657 255.43C121.035 254.627 121.549 253.389 121.952 251.888C122.809 248.695 123.222 245.334 123.826 242.082L127.173 224.545L139.06 162.18L142.218 145.876C142.873 142.514 143.41 139.004 144.397 135.725C145.644 130.509 146.86 123.12 151.54 119.789C153.135 118.654 155.001 118.069 156.952 118.439C160.546 119.123 162.749 121.907 164.72 124.719C167.889 127.621 169.585 131.617 169.752 135.89C170.081 144.292 168.623 155.344 168.035 164.006C166.716 183.426 165.591 202.815 163.586 222.183L160.307 254.05C158.882 268.105 157.613 279.061 158.638 293.33C160.126 291.032 161.65 288.736 162.87 286.281C164.762 282.473 166.143 278.425 167.937 274.572C172.918 263.869 180.627 252.923 192.866 250.257C195.706 249.638 198.408 249.751 201.263 249.51C202.245 249.533 202.621 249.52 203.326 250.285C203.535 250.512 203.728 250.754 203.926 250.99C205.548 252.775 206.538 255.301 206.375 257.737C205.951 264.071 199.858 268.835 199.372 272.595L198.012 274.369C194.162 279.827 193.861 291.233 192.397 297.935L191.874 299.475C191.86 300.302 191.787 301.128 191.955 301.941C192.057 302.728 192.26 303.341 191.786 304.068C191.667 304.25 191.436 304.405 191.263 304.535C191.202 304.613 191.135 304.686 191.081 304.77C189.617 307.047 188.224 314.476 187.363 317.46C184.871 326.104 181.782 334.469 179.629 343.227C177.225 353.004 175.769 362.999 173.124 372.732C171.103 379.992 168.71 387.128 165.946 394.14C163.182 401.151 160.061 408 156.584 414.687C152.672 422.28 147.415 429.434 144.964 437.687C141.644 448.863 142.869 463.16 143.171 474.81C143.773 498.182 145.299 521.493 147.749 544.745C149.827 564.527 152.451 584.337 157.145 603.69C150.739 607.756 142.778 610.664 135.579 613.027C102.055 624.035 64.566 622.376 32.884 606.389C34.739 591.42 36.866 576.493 38.559 561.501C41.3644 536.539 43.2907 511.511 44.338 486.415C45.048 467.471 45.312 448.19 43.182 429.335C41.74 416.575 38.473 404.048 35.754 391.513C31.9767 373.917 28.3494 356.29 24.872 338.632C22.072 324.163 19.414 309.551 17.625 294.916C16.917 289.12 16.731 283.262 16.169 277.449C15.518 270.725 14.457 264.026 13.505 257.339C10.107 233.453 5.42904 208.704 8.34804 184.564C8.36304 183.64 8.49103 182.804 8.77003 181.918C9.55603 179.423 10.747 176.927 13.196 175.702C13.4054 175.599 13.619 175.507 13.837 175.426C14.0557 175.344 14.2777 175.273 14.503 175.214C14.7284 175.154 14.956 175.106 15.186 175.07C15.416 175.033 15.6474 175.008 15.88 174.995C16.1127 174.981 16.3457 174.979 16.579 174.989C16.8117 174.998 17.0434 175.019 17.274 175.052C17.5047 175.084 17.7334 175.128 17.96 175.184C18.186 175.239 18.409 175.306 18.629 175.384C22.319 176.685 24.148 180.266 25.674 183.587L25.805 183.793L26.019 184.139C32.526 194.499 33.178 212.715 34.982 224.938C36.688 236.496 38.97 247.997 40.952 259.512L43.016 271.585C43.35 273.566 43.508 275.697 44.062 277.618C44.239 278.232 44.248 278.526 44.802 278.849C45.432 277.011 45.521 259.56 45.623 255.945L47.779 182.363C48.157 167.572 46.419 152.153 50.321 137.687C51.18 134.383 51.653 130.861 52.982 127.703C54 125.285 55.593 123.541 58.104 122.641C60.237 121.877 62.694 121.973 64.741 122.962C68.197 124.633 69.378 128.473 70.633 131.802C72.213 135.294 72.844 139.469 73.342 143.242C74.404 151.295 74.382 159.637 75.005 167.757L79.341 223.074C79.774 228.813 79.254 235.413 80.624 240.989C82.376 234.436 81.786 222.81 82.011 215.631L84.072 150.376L84.322 141.098L84.572 131.821C84.722 126.41 84.689 120.642 85.892 115.349C86.622 110.635 87.414 105.614 89.414 101.249Z" fill="#FEAB8A"/>
<path id="Vector_2" d="M65.4 211.502C66.246 211.387 67.315 211.171 68.154 211.286C68.877 211.385 69.197 211.703 69.562 212.284L69.301 213.032C67.953 214.295 66.918 214.296 65.125 214.393C64.57 214.471 63.903 214.623 63.347 214.591C62.568 214.546 62.412 214.304 61.901 213.785C61.863 213.07 61.934 212.86 62.445 212.285C63.146 211.495 64.427 211.567 65.4 211.502Z" fill="#E3715A"/>
<path id="Vector_3" d="M29.434 241.289C29.857 241.292 30.372 241.46 30.793 241.544C31.357 242.061 31.406 242.051 31.517 242.8C30.418 244.407 26.475 244.964 24.584 245.449L23.77 245.423C23.206 245.101 22.863 244.95 22.508 244.382C22.226 243.932 22.358 243.846 22.46 243.37C23.952 242.068 27.45 241.674 29.434 241.289Z" fill="#E3715A"/>
<path id="Vector_4" d="M57.112 215.904C59.681 215.927 63.137 215.584 65.507 216.534C66.026 217.178 65.991 217.183 65.974 218.018L65.402 218.408C62.485 218.72 59.55 218.819 56.62 218.955C56.619 217.978 56.469 216.69 57.112 215.904Z" fill="#E3715A"/>
<path id="Vector_5" d="M101.006 197.656C103.052 197.46 105.96 197.359 107.921 198.065C108.674 198.336 108.888 198.613 109.247 199.3C109.195 200.002 109.131 200.376 108.754 200.975C106.902 201.014 104.907 201.165 103.073 200.923C101.917 200.771 101.254 200.51 100.557 199.567C100.474 198.718 100.591 198.397 101.006 197.656Z" fill="#E3715A"/>
<path id="Vector_6" d="M191.263 304.535C189.25 304.388 186.885 304.282 185.034 303.453C184.127 303.046 183.386 302.414 183.067 301.446C182.87 300.849 182.95 300.939 183.196 300.426C185.551 299.651 189.476 301.448 191.955 301.941C192.057 302.728 192.26 303.341 191.786 304.068C191.667 304.25 191.436 304.405 191.263 304.535Z" fill="#E3715A"/>
<path id="Vector_7" d="M25.3081 217.929C25.8851 217.868 26.0581 217.901 26.5931 218.06C26.8991 218.63 27.0981 218.988 27.1051 219.643C25.3651 221.461 19.6611 222.339 17.1341 223.182C16.2231 223.129 16.2361 223.111 15.5641 222.489C15.3611 221.685 15.3511 221.559 15.5891 220.768C17.4511 218.998 22.6821 218.637 25.3081 217.929Z" fill="#E3715A"/>
<path id="Vector_8" d="M44.562 279.528C44.782 279.591 45.11 279.673 45.301 279.79C45.894 280.155 46.146 280.708 46.246 281.371C46.72 284.517 44.4321 290.838 42.6391 293.394C41.9241 293.244 41.817 293.218 41.29 292.719C40.76 290.49 43.389 281.576 44.562 279.528Z" fill="#E3715A"/>
<path id="Vector_9" d="M191.874 299.475C188.481 300.132 184.036 298.009 181.266 296.129C180.38 295.527 179.252 294.867 179.05 293.797C179.399 293.405 179.551 293.244 180.073 293.088C181.163 292.762 182.733 293.85 183.645 294.43C186.307 296.127 190.255 295.854 192.397 297.935L191.874 299.475Z" fill="#E3715A"/>
<path id="Vector_10" d="M145.918 199.991C144.369 199.721 141.257 199.545 140.167 198.353C139.869 198.027 139.969 197.694 139.96 197.283C140.63 196.566 141.164 196.354 142.157 196.323C145.099 196.231 149.902 197.317 152.548 198.527C152.848 199.432 152.622 199.995 152.449 200.922L145.918 199.991Z" fill="#E3715A"/>
<path id="Vector_11" d="M93.747 201.49C97.182 201.935 101.864 200.469 104.919 202.295C105.362 203.249 105.188 203.729 105.074 204.76C102.938 204.721 100.812 204.832 98.678 204.888C96.845 204.937 94.838 205.093 93.436 203.765C93.224 202.836 93.423 202.34 93.747 201.49Z" fill="#E3715A"/>
<path id="Vector_12" d="M32.7131 245.433L33.1321 245.505L33.5351 246.095C33.5451 246.639 33.6351 246.968 33.3701 247.466C32.5611 248.991 24.0951 251.152 21.9641 251.802C21.7771 251.601 21.5031 251.325 21.3721 251.091C20.9901 250.407 21.0231 250.125 21.2261 249.435C23.3391 247.358 29.6291 246.253 32.7131 245.433Z" fill="#E3715A"/>
<path id="Vector_13" d="M95.3611 192.493C98.5331 192.593 105.636 191.84 108.282 192.75C108.994 192.995 109.026 193.234 109.36 193.865C109.279 194.606 109.2 194.989 108.77 195.603C106.671 195.552 96.6661 195.794 95.4151 195.039C95.0411 194.171 95.2341 193.394 95.3611 192.493Z" fill="#E3715A"/>
<path id="Vector_14" d="M30.947 236.47C31.239 236.399 31.352 236.357 31.682 236.355C32.512 236.349 32.977 236.615 33.587 237.124C33.684 237.545 33.851 237.749 33.602 238.147C32.314 240.204 23.566 241.626 21.045 242.003L19.724 242.029C19.002 241.619 18.845 241.543 18.431 240.835L18.702 240.109C20.873 238.158 27.918 237.189 30.947 236.47Z" fill="#E3715A"/>
<path id="Vector_15" d="M73.444 206.709L74.104 206.581C74.311 206.733 74.593 206.92 74.742 207.128C75.178 207.735 75.173 208.117 75.093 208.8C74.712 209.26 74.376 209.511 73.775 209.631C72.23 209.941 70.361 209.829 68.772 209.897C65.497 210.038 62.188 210.232 58.944 210.708C58.753 210.712 58.562 210.738 58.371 210.722C57.562 210.652 57.437 210.46 56.976 209.865C56.877 209.102 56.807 208.966 57.15 208.292C59.657 206.703 70.095 206.822 73.444 206.709Z" fill="#E3715A"/>
<path id="Vector_16" d="M145.918 199.991L152.449 200.922C152.492 201.477 152.544 201.885 152.703 202.425C153.723 202.39 154.673 202.341 155.551 202.968C156.189 203.424 156.171 203.475 156.278 204.209C154.966 207.075 150.621 203.954 148.397 205.142C148.946 205.913 149.593 206.312 149.675 207.28C149.043 207.712 148.528 207.731 147.778 207.714C145.304 207.657 139.944 207.297 138.08 205.458L138.168 204.896C140.359 203.124 141.902 204.632 144.082 203.818C144.172 203.164 144.179 203.415 144.109 202.78C144.094 202.636 144.072 202.492 144.054 202.348L144.59 201.719C145.208 201.442 145.558 201.246 146 200.73L145.918 199.991Z" fill="#E3715A"/>
<path id="Vector_17" d="M145.918 199.991L152.449 200.922C152.492 201.477 152.544 201.885 152.703 202.425L144.59 201.719C145.208 201.442 145.558 201.246 146 200.73L145.918 199.991Z" fill="#FD9781"/>
<path id="Vector_18" d="M201.263 249.51C202.245 249.533 202.621 249.52 203.326 250.285C203.535 250.512 203.728 250.754 203.926 250.99C203.886 251.068 203.848 251.146 203.806 251.222C200.814 256.679 193.088 259.181 195.291 266.809C196.086 269.562 198.055 270.386 199.372 272.595L198.012 274.369C197.228 273.853 196.425 273.333 195.72 272.71C193.548 270.787 192.074 268.118 191.911 265.198C191.563 258.971 197.359 253.725 201.263 249.51Z" fill="#E3715A"/>
<path id="Vector_19" d="M80.232 242.129C80.765 242.235 81.234 242.381 81.748 242.552C81.948 242.802 82.026 242.865 82.143 243.21C83.229 246.414 82.921 268.728 82.11 272.426C81.481 275.297 79.839 278.219 78.292 280.697C78.031 280.678 77.442 280.648 77.203 280.578C76.825 280.468 76.587 280.251 76.52 279.87C76.109 277.522 79.154 272.666 79.543 269.79C80.23 264.702 78.763 245.237 79.678 242.881C79.79 242.591 80.047 242.38 80.232 242.129Z" fill="#E3715A"/>
<path id="Vector_20" d="M203.926 250.99C205.548 252.775 206.538 255.301 206.375 257.737C205.951 264.071 199.858 268.835 199.372 272.595C198.055 270.386 196.086 269.562 195.291 266.809C193.088 259.181 200.814 256.679 203.806 251.222C203.848 251.146 203.886 251.068 203.926 250.99Z" fill="#FEAB8A"/>
<path id="Vector_21" d="M158.263 292.461C158.952 292.643 159.554 292.897 160.204 293.182C160.892 294.631 160.52 299.584 160.594 301.506C160.885 307.868 161.449 314.207 162.284 320.521C163.354 328.368 166.01 335.99 167.608 343.732C167.889 345.091 168.056 345.764 167.263 346.979C167.074 346.944 166.79 346.898 166.615 346.834C165.852 346.556 165.57 345.908 165.234 345.214C161.004 336.466 155.086 301.024 158.263 292.461Z" fill="#E3715A"/>
<path id="Vector_22" d="M8.34806 184.564C8.36306 183.64 8.49106 182.804 8.77006 181.918C9.55606 179.423 10.7471 176.927 13.1961 175.702C13.4054 175.599 13.6191 175.507 13.8371 175.426C14.0557 175.344 14.2777 175.273 14.5031 175.214C14.7284 175.154 14.9561 175.106 15.1861 175.07C15.4161 175.033 15.6474 175.008 15.8801 174.995C16.1127 174.981 16.3457 174.979 16.579 174.989C16.8117 174.998 17.0434 175.019 17.2741 175.052C17.5047 175.084 17.7334 175.128 17.9601 175.184C18.1861 175.239 18.409 175.306 18.629 175.384C22.319 176.685 24.148 180.266 25.674 183.587C25.144 188.644 25.819 195.31 21.495 198.984C20.451 199.871 19.184 200.281 17.823 200.121C15.546 199.854 13.5741 198.421 12.2331 196.616C10.1221 193.778 8.21706 188.082 8.34806 184.564Z" fill="#E3715A"/>
<path id="Vector_23" d="M14.884 178.323C15.776 178.167 16.747 177.941 17.652 178.104C18.943 178.336 20.176 179.866 20.763 180.944C22.485 184.106 22.625 189.458 21.617 192.897C21.031 194.894 20.236 195.987 18.395 196.95C18.001 196.924 17.6 196.909 17.214 196.811C15.789 196.448 14.716 194.976 14.012 193.783C12.101 190.545 10.893 185.379 12.021 181.742C12.516 180.145 13.405 179.075 14.884 178.323Z" fill="#FEAB8A"/>
<path id="Vector_24" d="M144.397 135.725C145.644 130.509 146.86 123.12 151.54 119.789C153.135 118.654 155.001 118.069 156.952 118.439C160.546 119.122 162.749 121.907 164.72 124.719C165.129 130.555 165.913 139.325 161.825 144.106C160.353 145.828 158.129 146.94 155.858 147.031C153.514 147.126 151.211 146.163 149.535 144.542C147.234 142.316 145.77 136.693 144.397 135.725Z" fill="#E3715A"/>
<path id="Vector_25" d="M155.259 121.718C156.555 121.769 158.801 121.9 159.876 122.656C160.915 123.387 161.322 124.64 161.572 125.836C162.508 130.311 162.392 138.144 159.678 141.949C158.527 143.563 157.346 144.037 155.45 144.407C154.687 144.267 153.92 144.128 153.212 143.798C151.22 142.868 149.81 140.862 149.165 138.808C147.925 134.859 149.085 129.005 150.996 125.381C152.1 123.287 153.012 122.43 155.259 121.718Z" fill="#FEAB8A"/>
<path id="Vector_26" d="M50.321 137.687C51.18 134.383 51.653 130.861 52.982 127.703C54 125.285 55.593 123.541 58.104 122.641C60.237 121.877 62.694 121.973 64.741 122.962C68.197 124.633 69.378 128.473 70.633 131.802C68.35 136.661 72.4091 142.839 67.2861 150.082C64.0331 151.814 60.027 151.737 56.533 150.718C55.855 150.519 55.199 150.264 54.548 149.99C51.418 146.259 52.039 142.061 50.353 137.811C50.337 137.771 50.331 137.728 50.321 137.687Z" fill="#E3715A"/>
<path id="Vector_27" d="M59.821 125.261C61.238 125.19 62.527 125.227 63.739 126.061C65.875 127.531 66.836 130.23 67.199 132.687C67.747 136.4 68.027 144.155 65.58 147.206C64.712 148.288 62.997 148.261 61.715 148.395C60.569 148.411 58.997 148.488 57.932 148.045C56.512 147.453 55.447 146.13 54.873 144.736C53.166 140.582 53.946 133.917 55.653 129.84C56.616 127.539 57.486 126.218 59.821 125.261Z" fill="#FEAB8A"/>
<path id="Vector_28" d="M89.4141 101.249C91.4411 99.7878 93.7211 98.5299 96.2821 98.4847C100.138 98.4167 102.859 101.017 105.503 103.447C105.434 103.61 105.356 103.769 105.295 103.936C104.688 105.603 106.037 109.673 106.27 111.52C106.945 116.879 105.877 124.836 100.728 127.722C98.4971 128.972 96.3351 129.13 93.8391 129C90.9191 127.296 88.6571 125.472 87.7841 122.025C87.2691 119.993 87.4321 116.804 85.8921 115.349C86.6221 110.635 87.4141 105.614 89.4141 101.249Z" fill="#E3715A"/>
<path id="Vector_29" d="M95.767 101.362C96.343 101.327 96.954 101.27 97.525 101.386C99.232 101.732 100.8 103.355 101.675 104.778C103.978 108.52 104.307 115.127 103.21 119.325C102.352 122.608 100.404 124.47 97.568 126.105C96.464 126.245 95.505 126.311 94.474 125.824C92.508 124.897 91.304 123.102 90.594 121.106C88.93 116.429 89.4071 109.129 91.6531 104.708C92.6691 102.708 93.688 102.087 95.767 101.362Z" fill="#FEAB8A"/>
</g>
<g id="nails">
<path id="Ellipse 11" d="M227 241.997C220.028 251.278 200 278.497 196.573 272.149C192.733 269.264 191.259 263.453 198.231 254.171C205.204 244.89 267.537 168.3 271.376 171.185C275.216 174.069 233.972 232.716 227 241.997Z" fill="#F08080"/>
<path id="Ellipse 10" d="M163.641 130.363C162.648 141.929 159.222 145.41 154.437 144.999C149.652 144.589 145.322 140.442 146.314 128.876C147.306 117.31 159.564 19.3247 164.349 19.7353C169.133 20.1458 164.633 118.797 163.641 130.363Z" fill="#F08080"/>
<path id="Ellipse 9" d="M104.776 110.585C104.945 122.225 101.924 126.042 97.1831 126.11C92.4425 126.179 87.7782 122.475 87.6088 110.835C87.4395 99.1945 89.7861 0.194653 94.5266 0.125685C99.2671 0.0567178 104.606 98.9448 104.776 110.585Z" fill="#F08080"/>
<path id="Ellipse 3" d="M68.856 134.141C69.0249 145.748 65.9635 149.554 61.1618 149.624C56.3601 149.694 51.6364 146.001 51.4676 134.394C51.2987 122.787 53.6982 24.0666 58.4999 23.9968C63.3016 23.9269 68.6872 122.534 68.856 134.141Z" fill="#F08080"/>
<path id="Ellipse 8" d="M23.6182 182.659C24.6618 193.992 22.5442 197.89 18.7601 198.239C14.976 198.587 10.9583 195.254 9.91468 183.921C8.87106 172.589 3.02226 75.9804 6.80639 75.632C10.5905 75.2835 22.5746 171.327 23.6182 182.659Z" fill="#F08080"/>
</g>
</g>
</svg>
