<svg width="222" height="544" viewBox="0 0 222 544" fill="none" xmlns="http://www.w3.org/2000/svg">
<g id="almond">
<g id="hand">
<path id="Vector" d="M82.7872 24.2518C84.8142 22.7911 87.0942 21.5332 89.6552 21.488C93.5112 21.42 96.2322 24.0206 98.8762 26.4507C100.393 27.8663 101.961 29.3097 102.799 31.2545C105.33 37.1315 106.889 56.3451 107.125 63.406L109.579 143.287C109.763 150.322 109.902 157.358 109.996 164.395C110.028 167.533 109.796 170.763 110.018 173.883C110.133 175.511 110.352 176.833 111.369 178.139C112.106 178.496 112.215 178.515 113.03 178.433C114.408 177.63 114.922 176.392 115.325 174.891C116.182 171.698 116.595 168.337 117.199 165.085L120.546 147.548L132.433 85.183L135.591 68.879C136.246 65.517 136.783 62.007 137.77 58.7281C139.017 53.5123 140.233 46.1234 144.913 42.7924C146.508 41.657 148.374 41.072 150.325 41.4427C153.919 42.1258 156.122 44.9105 158.093 47.7227C161.262 50.6246 162.958 54.6201 163.125 58.8928C163.454 67.295 161.996 78.347 161.408 87.009C160.089 106.429 158.964 125.818 156.959 145.186L153.68 177.053C152.255 191.108 150.986 202.064 152.011 216.333C153.499 214.035 155.023 211.739 156.243 209.284C158.135 205.476 159.516 201.428 161.31 197.575C166.291 186.872 174 175.926 186.239 173.26C189.079 172.641 191.781 172.754 194.636 172.513C195.618 172.536 195.994 172.523 196.699 173.288C196.908 173.515 197.101 173.757 197.299 173.993C198.921 175.778 199.911 178.304 199.748 180.74C199.324 187.074 193.231 191.838 192.745 195.598L191.385 197.372C187.535 202.83 187.234 214.236 185.77 220.938L185.247 222.478C185.233 223.305 185.16 224.131 185.328 224.944C185.43 225.731 185.633 226.344 185.159 227.071C185.04 227.253 184.809 227.408 184.636 227.538C184.575 227.616 184.508 227.689 184.454 227.773C182.99 230.05 181.597 237.479 180.736 240.463C178.244 249.107 175.155 257.472 173.002 266.23C170.598 276.007 169.142 286.002 166.497 295.735C164.476 302.996 162.083 310.132 159.319 317.143C156.555 324.154 153.435 331.003 149.957 337.69C146.045 345.283 140.788 352.437 138.337 360.69C135.017 371.866 136.242 386.163 136.544 397.813C137.146 421.185 138.672 444.497 141.122 467.748C143.2 487.53 145.824 507.34 150.518 526.693C144.112 530.759 136.151 533.667 128.952 536.03C95.4282 547.038 57.9392 545.379 26.2572 529.392C28.1122 514.423 30.2392 499.496 31.9322 484.504C34.7375 459.543 36.6639 434.514 37.7112 409.418C38.4212 390.474 38.6852 371.193 36.5552 352.338C35.1132 339.578 31.8462 327.051 29.1272 314.516C25.3499 296.92 21.7225 279.293 18.2452 261.635C15.4452 247.166 12.7872 232.554 10.9982 217.919C10.2902 212.123 10.1042 206.265 9.5422 200.452C8.8912 193.728 7.8302 187.029 6.8782 180.342C3.4802 156.456 -1.19779 131.707 1.72121 107.567C1.73621 106.643 1.8642 105.807 2.1432 104.921C2.9292 102.426 4.1202 99.93 6.5692 98.705C6.77853 98.6023 6.9922 98.5103 7.2102 98.429C7.42887 98.347 7.65087 98.2763 7.8762 98.217C8.10154 98.1577 8.3292 98.1097 8.5592 98.073C8.7892 98.0363 9.02054 98.0113 9.2532 97.998C9.48587 97.984 9.71886 97.982 9.95219 97.992C10.1849 98.0013 10.4165 98.0223 10.6472 98.055C10.8779 98.0877 11.1065 98.1317 11.3332 98.187C11.5592 98.2423 11.7822 98.309 12.0022 98.387C15.6922 99.688 17.5212 103.269 19.0472 106.59L19.1782 106.796L19.3922 107.142C25.8992 117.502 26.5512 135.718 28.3552 147.941C30.0612 159.499 32.3432 171 34.3252 182.515L36.3892 194.588C36.7232 196.569 36.8812 198.7 37.4352 200.621C37.6122 201.235 37.6212 201.529 38.1752 201.852C38.8052 200.014 38.8942 182.563 38.9962 178.948L41.1522 105.366C41.5302 90.575 39.7922 75.156 43.6942 60.6905C44.5532 57.3862 45.0262 53.8644 46.3552 50.7061C47.3732 48.2885 48.9662 46.5441 51.4772 45.6445C53.6102 44.88 56.0672 44.976 58.1142 45.9655C61.5702 47.6365 62.7512 51.4759 64.0062 54.8057C65.5862 58.2977 66.2172 62.472 66.7152 66.245C67.7772 74.298 67.7552 82.64 68.3782 90.76L72.7142 146.077C73.1472 151.816 72.6272 158.416 73.9972 163.992C75.7492 157.439 75.1592 145.813 75.3842 138.634L77.4452 73.379L77.9452 54.824C78.0952 49.4133 78.0622 43.6454 79.2652 38.3526C79.9952 33.638 80.7872 28.6173 82.7872 24.2518Z" fill="#FEAB8A"/>
<path id="Vector_2" d="M58.7733 134.505C59.6193 134.39 60.6883 134.174 61.5273 134.289C62.2503 134.388 62.5703 134.706 62.9353 135.287L62.6743 136.035C61.3263 137.298 60.2913 137.299 58.4983 137.396C57.9433 137.474 57.2763 137.626 56.7203 137.594C55.9413 137.549 55.7853 137.307 55.2743 136.788C55.2363 136.073 55.3073 135.863 55.8183 135.288C56.5193 134.498 57.8003 134.57 58.7733 134.505Z" fill="#E3715A"/>
<path id="Vector_3" d="M22.8071 164.292C23.2301 164.295 23.7451 164.463 24.1661 164.547C24.7301 165.064 24.7791 165.054 24.8901 165.803C23.7911 167.41 19.8481 167.967 17.9571 168.452L17.1431 168.426C16.5791 168.104 16.2361 167.953 15.8811 167.385C15.5991 166.935 15.7311 166.849 15.8331 166.373C17.3251 165.071 20.8231 164.677 22.8071 164.292Z" fill="#E3715A"/>
<path id="Vector_4" d="M50.4849 138.907C53.0539 138.93 56.5099 138.587 58.8799 139.537C59.3989 140.181 59.3639 140.186 59.3469 141.021L58.7749 141.411C55.8579 141.723 52.9229 141.822 49.9929 141.958C49.9919 140.981 49.8419 139.693 50.4849 138.907Z" fill="#E3715A"/>
<path id="Vector_5" d="M94.3793 120.659C96.4253 120.463 99.3333 120.362 101.294 121.068C102.047 121.339 102.261 121.616 102.62 122.303C102.568 123.005 102.504 123.379 102.127 123.978C100.275 124.017 98.2803 124.168 96.4463 123.926C95.2903 123.774 94.6273 123.513 93.9303 122.57C93.8473 121.721 93.9643 121.4 94.3793 120.659Z" fill="#E3715A"/>
<path id="Vector_6" d="M184.636 227.538C182.623 227.391 180.258 227.285 178.407 226.456C177.5 226.049 176.759 225.417 176.44 224.449C176.243 223.852 176.323 223.942 176.569 223.429C178.924 222.654 182.849 224.451 185.328 224.944C185.43 225.731 185.633 226.344 185.159 227.071C185.04 227.253 184.809 227.408 184.636 227.538Z" fill="#E3715A"/>
<path id="Vector_7" d="M18.6811 140.932C19.2581 140.871 19.4311 140.904 19.9661 141.063C20.2721 141.633 20.4711 141.991 20.4781 142.646C18.7381 144.464 13.0341 145.342 10.5071 146.185C9.59611 146.132 9.6091 146.114 8.9371 145.492C8.7341 144.688 8.72411 144.562 8.96211 143.771C10.8241 142.001 16.0551 141.64 18.6811 140.932Z" fill="#E3715A"/>
<path id="Vector_8" d="M37.935 202.531C38.155 202.594 38.483 202.676 38.674 202.793C39.267 203.158 39.519 203.711 39.619 204.374C40.093 207.52 37.805 213.841 36.012 216.397C35.297 216.247 35.19 216.221 34.663 215.722C34.133 213.493 36.762 204.579 37.935 202.531Z" fill="#E3715A"/>
<path id="Vector_9" d="M185.247 222.478C181.854 223.135 177.409 221.012 174.639 219.132C173.753 218.53 172.625 217.87 172.423 216.8C172.772 216.408 172.924 216.247 173.446 216.091C174.536 215.765 176.106 216.853 177.018 217.433C179.68 219.13 183.628 218.857 185.77 220.938L185.247 222.478Z" fill="#E3715A"/>
<path id="Vector_10" d="M139.291 122.994C137.742 122.724 134.63 122.548 133.54 121.356C133.242 121.03 133.342 120.697 133.333 120.286C134.003 119.569 134.537 119.357 135.53 119.326C138.472 119.234 143.275 120.32 145.921 121.53C146.221 122.435 145.995 122.998 145.822 123.925L139.291 122.994Z" fill="#E3715A"/>
<path id="Vector_11" d="M87.1199 124.493C90.5549 124.938 95.2369 123.472 98.2919 125.298C98.7349 126.252 98.5609 126.732 98.4469 127.763C96.3109 127.724 94.1849 127.835 92.0509 127.891C90.2179 127.94 88.2109 128.096 86.8089 126.768C86.5969 125.839 86.7959 125.343 87.1199 124.493Z" fill="#E3715A"/>
<path id="Vector_12" d="M26.0861 168.436L26.5051 168.508L26.9081 169.098C26.9181 169.642 27.0081 169.971 26.7431 170.469C25.9341 171.994 17.4681 174.155 15.3371 174.805C15.1501 174.604 14.8761 174.328 14.7451 174.094C14.3631 173.41 14.3961 173.128 14.5991 172.438C16.7121 170.361 23.0021 169.256 26.0861 168.436Z" fill="#E3715A"/>
<path id="Vector_13" d="M88.7341 115.496C91.9061 115.596 99.0091 114.843 101.655 115.753C102.367 115.998 102.399 116.237 102.733 116.868C102.652 117.609 102.573 117.992 102.143 118.606C100.044 118.555 90.0391 118.797 88.7881 118.042C88.4141 117.174 88.6071 116.397 88.7341 115.496Z" fill="#E3715A"/>
<path id="Vector_14" d="M24.3202 159.473C24.6122 159.402 24.7252 159.36 25.0552 159.358C25.8852 159.352 26.3502 159.618 26.9602 160.127C27.0572 160.548 27.2242 160.752 26.9752 161.15C25.6872 163.207 16.9392 164.629 14.4182 165.006L13.0972 165.032C12.3752 164.622 12.2182 164.546 11.8042 163.838L12.0752 163.112C14.2462 161.161 21.2912 160.192 24.3202 159.473Z" fill="#E3715A"/>
<path id="Vector_15" d="M66.8172 129.712L67.4772 129.584C67.6842 129.736 67.9662 129.923 68.1152 130.131C68.5512 130.738 68.5462 131.12 68.4662 131.803C68.0852 132.263 67.7492 132.514 67.1482 132.634C65.6032 132.944 63.7342 132.832 62.1452 132.9C58.8702 133.041 55.5612 133.235 52.3172 133.711C52.1262 133.715 51.9352 133.741 51.7442 133.725C50.9352 133.655 50.8102 133.463 50.3492 132.868C50.2502 132.105 50.1802 131.969 50.5232 131.295C53.0302 129.706 63.4682 129.825 66.8172 129.712Z" fill="#E3715A"/>
<path id="Vector_16" d="M139.291 122.994L145.822 123.925C145.865 124.48 145.917 124.888 146.076 125.428C147.096 125.393 148.046 125.344 148.924 125.971C149.562 126.427 149.544 126.478 149.651 127.212C148.339 130.078 143.994 126.957 141.77 128.145C142.319 128.916 142.966 129.315 143.048 130.283C142.416 130.715 141.901 130.734 141.151 130.717C138.677 130.66 133.317 130.3 131.453 128.461L131.541 127.899C133.732 126.127 135.275 127.635 137.455 126.821C137.545 126.167 137.552 126.418 137.482 125.783C137.467 125.639 137.445 125.495 137.427 125.351L137.963 124.722C138.581 124.445 138.931 124.249 139.373 123.733L139.291 122.994Z" fill="#E3715A"/>
<path id="Vector_17" d="M139.291 122.994L145.822 123.925C145.865 124.48 145.917 124.888 146.076 125.428L137.963 124.722C138.581 124.445 138.931 124.249 139.373 123.733L139.291 122.994Z" fill="#FD9781"/>
<path id="Vector_18" d="M194.636 172.513C195.618 172.536 195.994 172.523 196.699 173.288C196.908 173.515 197.101 173.757 197.299 173.993C197.259 174.071 197.221 174.149 197.179 174.225C194.187 179.682 186.461 182.184 188.664 189.812C189.459 192.565 191.428 193.389 192.745 195.598L191.385 197.372C190.601 196.856 189.798 196.336 189.093 195.713C186.921 193.79 185.447 191.121 185.284 188.201C184.936 181.974 190.732 176.728 194.636 172.513Z" fill="#E3715A"/>
<path id="Vector_19" d="M73.605 165.132C74.138 165.238 74.607 165.384 75.121 165.555C75.321 165.805 75.3991 165.868 75.5161 166.213C76.6021 169.417 76.294 191.731 75.483 195.429C74.854 198.3 73.212 201.222 71.665 203.7C71.404 203.681 70.8151 203.651 70.5761 203.581C70.1981 203.471 69.96 203.254 69.893 202.873C69.482 200.525 72.527 195.669 72.916 192.793C73.603 187.705 72.1361 168.24 73.0511 165.884C73.1631 165.594 73.42 165.383 73.605 165.132Z" fill="#E3715A"/>
<path id="Vector_20" d="M197.299 173.993C198.921 175.778 199.911 178.304 199.748 180.74C199.324 187.074 193.231 191.838 192.745 195.598C191.428 193.389 189.459 192.565 188.664 189.812C186.461 182.184 194.187 179.682 197.179 174.225C197.221 174.149 197.259 174.071 197.299 173.993Z" fill="#FEAB8A"/>
<path id="Vector_21" d="M151.636 215.464C152.325 215.646 152.927 215.9 153.577 216.185C154.265 217.634 153.893 222.587 153.967 224.509C154.258 230.872 154.822 237.21 155.657 243.524C156.727 251.371 159.383 258.993 160.981 266.735C161.262 268.094 161.429 268.767 160.636 269.982C160.447 269.947 160.163 269.901 159.988 269.837C159.225 269.559 158.943 268.911 158.607 268.217C154.377 259.469 148.459 224.027 151.636 215.464Z" fill="#E3715A"/>
<path id="Vector_22" d="M1.72123 107.567C1.73623 106.643 1.86422 105.807 2.14322 104.921C2.92922 102.426 4.12022 99.93 6.56922 98.705C6.77855 98.6023 6.99223 98.5103 7.21023 98.429C7.42889 98.347 7.65089 98.2763 7.87623 98.217C8.10156 98.1576 8.32923 98.1096 8.55923 98.073C8.78923 98.0363 9.02056 98.0113 9.25323 97.998C9.48589 97.984 9.71888 97.982 9.95222 97.992C10.1849 98.0013 10.4166 98.0223 10.6472 98.055C10.8779 98.0876 11.1066 98.1316 11.3332 98.187C11.5592 98.2423 11.7822 98.309 12.0022 98.387C15.6922 99.688 17.5212 103.269 19.0472 106.59C18.5172 111.647 19.1922 118.313 14.8682 121.987C13.8242 122.874 12.5572 123.284 11.1962 123.124C8.91922 122.857 6.94722 121.424 5.60622 119.619C3.49522 116.781 1.59023 111.085 1.72123 107.567Z" fill="#E3715A"/>
<path id="Vector_23" d="M8.25701 101.326C9.14901 101.17 10.12 100.944 11.025 101.107C12.316 101.339 13.549 102.869 14.136 103.947C15.858 107.109 15.998 112.461 14.99 115.9C14.404 117.897 13.609 118.99 11.768 119.953C11.374 119.927 10.973 119.912 10.587 119.814C9.16201 119.451 8.089 117.979 7.385 116.786C5.474 113.548 4.26601 108.382 5.39401 104.745C5.88901 103.148 6.77801 102.078 8.25701 101.326Z" fill="#FEAB8A"/>
<path id="Vector_24" d="M137.77 58.7282C139.017 53.5124 140.233 46.1235 144.913 42.7925C146.508 41.6571 148.374 41.0721 150.325 41.4428C153.919 42.1259 156.122 44.9106 158.093 47.7228C158.502 53.5589 159.286 62.3281 155.198 67.1091C153.726 68.8311 151.502 69.9431 149.231 70.0341C146.887 70.1291 144.584 69.1661 142.908 67.5451C140.607 65.3191 139.143 59.6967 137.77 58.7282Z" fill="#E3715A"/>
<path id="Vector_25" d="M148.632 44.7209C149.928 44.7722 152.174 44.9028 153.249 45.6596C154.288 46.3905 154.695 47.6437 154.945 48.8391C155.881 53.3144 155.765 61.147 153.051 64.952C151.9 66.566 150.719 67.04 148.823 67.41C148.06 67.27 147.293 67.1309 146.585 66.8009C144.593 65.8709 143.183 63.8649 142.538 61.8109C141.298 57.862 142.458 52.0083 144.369 48.3841C145.473 46.2898 146.385 45.4328 148.632 44.7209Z" fill="#FEAB8A"/>
<path id="Vector_26" d="M43.6943 60.6905C44.5533 57.3862 45.0263 53.8644 46.3553 50.7061C47.3733 48.2885 48.9663 46.5441 51.4773 45.6445C53.6103 44.88 56.0673 44.976 58.1143 45.9655C61.5703 47.6365 62.7513 51.4759 64.0063 54.8057C61.7233 59.6647 65.7823 65.842 60.6593 73.085C57.4063 74.817 53.4003 74.74 49.9063 73.721C49.2283 73.522 48.5723 73.267 47.9213 72.993C44.7913 69.262 45.4123 65.064 43.7263 60.8141C43.7103 60.7745 43.7043 60.7317 43.6943 60.6905Z" fill="#E3715A"/>
<path id="Vector_27" d="M53.194 48.2639C54.611 48.1935 55.9 48.2299 57.112 49.0643C59.248 50.534 60.2089 53.2329 60.5719 55.6901C61.1199 59.4034 61.3999 67.158 58.9529 70.209C58.0849 71.291 56.3699 71.264 55.0879 71.398C53.9419 71.414 52.3699 71.491 51.3049 71.048C49.8849 70.456 48.8199 69.133 48.2459 67.739C46.5389 63.585 47.319 56.92 49.026 52.8431C49.989 50.5419 50.859 49.2212 53.194 48.2639Z" fill="#FEAB8A"/>
<path id="Vector_28" d="M82.7871 24.2518C84.8141 22.7911 87.0942 21.5332 89.6552 21.488C93.5112 21.42 96.2321 24.0206 98.8761 26.4507C98.8071 26.6134 98.7292 26.7726 98.6682 26.9388C98.0612 28.606 99.4101 32.6759 99.6431 34.5231C100.318 39.8824 99.2501 47.8392 94.1011 50.725C91.8701 51.9756 89.7081 52.1328 87.2121 52.0028C84.2921 50.2997 82.0301 48.4751 81.1571 45.0283C80.6421 42.9967 80.8051 39.8069 79.2651 38.3526C79.9951 33.638 80.7871 28.6173 82.7871 24.2518Z" fill="#E3715A"/>
<path id="Vector_29" d="M89.1401 24.3655C89.7161 24.33 90.3271 24.2736 90.8981 24.3893C92.6051 24.7349 94.1731 26.3581 95.0481 27.7808C97.3511 31.5232 97.6801 38.1302 96.5831 42.3286C95.7251 45.6109 93.7771 47.4737 90.9411 49.1082C89.8371 49.2487 88.8781 49.3139 87.8471 48.8275C85.8811 47.9005 84.6771 46.1053 83.9671 44.1091C82.3031 39.4327 82.7801 32.1327 85.0261 27.7116C86.0421 25.7113 87.0611 25.09 89.1401 24.3655Z" fill="#FEAB8A"/>
</g>
<g id="nails">
<path id="Ellipse 3" d="M62.8583 57.5001C63.0272 69.1072 59.9658 72.9135 55.1641 72.9833C50.3624 73.0532 45.6387 69.3602 45.4698 57.753C45.301 46.1459 48.8625 25.5532 53.6642 25.4834C58.4659 25.4135 62.6895 45.8929 62.8583 57.5001Z" fill="#F08080"/>
<path id="Ellipse 4" d="M17.623 105.948C18.4895 116.549 16.042 120.207 11.8381 120.55C7.63424 120.894 3.26581 117.793 2.39938 107.192C1.53296 96.5915 3.3797 77.5592 7.5836 77.2156C11.7875 76.872 16.7566 95.3473 17.623 105.948Z" fill="#F08080"/>
<path id="Ellipse 5" d="M99.1436 33.5488C98.8526 45.5107 95.6428 49.3108 90.842 49.194C86.0412 49.0772 81.4674 45.0878 81.7584 33.1259C82.0494 21.1641 86.4238 0.0938858 91.2246 0.210667C96.0253 0.327449 99.4346 21.587 99.1436 33.5488Z" fill="#F08080"/>
<path id="Ellipse 6" d="M158.586 53.1065C157.102 64.6196 153.53 67.9517 148.767 67.3378C144.004 66.7238 139.854 62.3964 141.338 50.8833C142.822 39.3701 149.277 19.4936 154.04 20.1075C158.802 20.7214 160.07 41.5933 158.586 53.1065Z" fill="#F08080"/>
<path id="Ellipse 7" d="M201.267 185.765C194.382 195.111 194.207 198.084 190.34 195.236C186.474 192.387 184.946 186.589 191.831 177.243C198.716 167.897 214.007 153.652 217.873 156.5C221.739 159.348 208.153 176.419 201.267 185.765Z" fill="#F08080"/>
</g>
</g>
</svg>
