<svg width="217" height="539" viewBox="0 0 217 539" fill="none" xmlns="http://www.w3.org/2000/svg">
<g id="coffin">
<g id="hand">
<path id="Vector" d="M81.984 19.2518C84.011 17.7911 86.291 16.5332 88.852 16.488C92.708 16.42 95.429 19.0206 98.073 21.4507C99.59 22.8663 101.158 24.3097 101.996 26.2545C104.527 32.1315 106.086 51.3451 106.322 58.406L108.776 138.287C108.959 145.322 109.098 152.358 109.193 159.395C109.225 162.533 108.993 165.763 109.215 168.883C109.33 170.511 109.549 171.833 110.566 173.139C111.303 173.496 111.412 173.515 112.227 173.433C113.605 172.63 114.119 171.392 114.522 169.891C115.379 166.698 115.792 163.337 116.396 160.085L119.743 142.548L131.63 80.183L134.788 63.879C135.443 60.517 135.98 57.007 136.967 53.7281C138.214 48.5123 139.43 41.1234 144.11 37.7924C145.705 36.657 147.571 36.072 149.522 36.4427C153.116 37.1258 155.319 39.9105 157.29 42.7227C160.459 45.6246 162.155 49.6201 162.322 53.8928C162.651 62.295 161.193 73.347 160.605 82.009C159.286 101.429 158.161 120.818 156.156 140.186L152.877 172.053C151.452 186.108 150.183 197.064 151.208 211.333C152.696 209.035 154.22 206.739 155.44 204.284C157.332 200.476 158.713 196.428 160.507 192.575C165.488 181.872 173.197 170.926 185.436 168.26C188.276 167.641 190.978 167.754 193.833 167.513C194.815 167.536 195.191 167.523 195.896 168.288C196.105 168.515 196.298 168.757 196.496 168.993C198.118 170.778 199.108 173.304 198.945 175.74C198.521 182.074 192.428 186.838 191.942 190.598L190.582 192.372C186.732 197.83 186.431 209.236 184.967 215.938L184.444 217.478C184.43 218.305 184.357 219.131 184.525 219.944C184.627 220.731 184.83 221.344 184.356 222.071C184.237 222.253 184.006 222.408 183.833 222.538C183.772 222.616 183.705 222.689 183.651 222.773C182.187 225.05 180.794 232.479 179.933 235.463C177.441 244.107 174.352 252.472 172.199 261.23C169.795 271.007 168.339 281.002 165.694 290.735C163.673 297.996 161.28 305.132 158.516 312.143C155.752 319.154 152.631 326.003 149.154 332.69C145.242 340.283 139.985 347.437 137.534 355.69C134.214 366.866 135.439 381.163 135.741 392.813C136.343 416.185 137.869 439.497 140.319 462.748C142.397 482.53 145.021 502.34 149.715 521.693C143.309 525.759 135.348 528.667 128.149 531.03C94.625 542.038 57.136 540.379 25.454 524.392C27.309 509.423 29.436 494.496 31.129 479.504C33.9343 454.543 35.8606 429.514 36.908 404.418C37.618 385.474 37.882 366.193 35.752 347.338C34.31 334.578 31.043 322.051 28.324 309.516C24.5466 291.92 20.9193 274.293 17.442 256.635C14.642 242.166 11.984 227.554 10.195 212.919C9.48698 207.123 9.30098 201.265 8.73898 195.452C8.08798 188.728 7.02698 182.029 6.07498 175.342C2.67698 151.456 -2.00102 126.707 0.917983 102.567C0.932983 101.643 1.06098 100.807 1.33998 99.921C2.12598 97.426 3.31698 94.93 5.76597 93.705C5.97531 93.6023 6.18898 93.5103 6.40698 93.429C6.62565 93.347 6.84765 93.2763 7.07298 93.217C7.29832 93.1577 7.52598 93.1097 7.75598 93.073C7.98598 93.0363 8.21731 93.0113 8.44998 92.998C8.68265 92.984 8.91564 92.982 9.14897 92.992C9.38164 93.0013 9.61331 93.0223 9.84398 93.055C10.0746 93.0877 10.3033 93.1317 10.53 93.187C10.756 93.2423 10.979 93.309 11.199 93.387C14.889 94.688 16.718 98.269 18.244 101.59L18.375 101.796L18.589 102.142C25.096 112.502 25.748 130.718 27.552 142.941C29.258 154.499 31.54 166 33.522 177.515L35.586 189.588C35.92 191.569 36.078 193.7 36.632 195.621C36.809 196.235 36.818 196.529 37.372 196.852C38.002 195.014 38.091 177.563 38.193 173.948L40.349 100.366C40.727 85.575 38.989 70.156 42.891 55.6905C43.75 52.3862 44.223 48.8644 45.552 45.7061C46.57 43.2885 48.163 41.5441 50.674 40.6445C52.807 39.88 55.264 39.976 57.311 40.9655C60.767 42.6365 61.948 46.4759 63.203 49.8057C64.783 53.2977 65.414 57.472 65.912 61.245C66.974 69.298 66.952 77.64 67.575 85.76L71.911 141.077C72.344 146.816 71.824 153.416 73.194 158.992C74.946 152.439 74.356 140.813 74.581 133.634L76.642 68.379L77.142 49.824C77.292 44.4133 77.259 38.6454 78.462 33.3526C79.192 28.638 79.984 23.6173 81.984 19.2518Z" fill="#FEAB8A"/>
<path id="Vector_2" d="M57.97 129.505C58.816 129.39 59.885 129.174 60.724 129.289C61.447 129.388 61.7671 129.706 62.1321 130.287L61.871 131.035C60.523 132.298 59.488 132.299 57.695 132.396C57.14 132.474 56.473 132.626 55.917 132.594C55.138 132.549 54.982 132.307 54.471 131.788C54.433 131.073 54.5041 130.863 55.0151 130.288C55.7161 129.498 56.997 129.57 57.97 129.505Z" fill="#E3715A"/>
<path id="Vector_3" d="M22.0039 159.292C22.4269 159.295 22.9419 159.463 23.3629 159.547C23.9269 160.064 23.9759 160.054 24.0869 160.803C22.9879 162.41 19.0449 162.967 17.1539 163.452L16.3399 163.426C15.7759 163.104 15.4329 162.953 15.0779 162.385C14.7959 161.935 14.9279 161.849 15.0299 161.373C16.5219 160.071 20.0199 159.677 22.0039 159.292Z" fill="#E3715A"/>
<path id="Vector_4" d="M49.6819 133.907C52.2509 133.93 55.7069 133.587 58.0769 134.537C58.5959 135.181 58.5609 135.186 58.5439 136.021L57.9719 136.411C55.0549 136.723 52.1199 136.822 49.1899 136.958C49.1889 135.981 49.0389 134.693 49.6819 133.907Z" fill="#E3715A"/>
<path id="Vector_5" d="M93.5761 115.659C95.6221 115.463 98.5301 115.362 100.491 116.068C101.244 116.339 101.458 116.616 101.817 117.303C101.765 118.005 101.701 118.379 101.324 118.978C99.4721 119.017 97.4771 119.168 95.6431 118.926C94.4871 118.774 93.8241 118.513 93.1271 117.57C93.0441 116.721 93.1611 116.4 93.5761 115.659Z" fill="#E3715A"/>
<path id="Vector_6" d="M183.833 222.538C181.82 222.391 179.455 222.285 177.604 221.456C176.697 221.049 175.956 220.417 175.637 219.449C175.44 218.852 175.52 218.942 175.766 218.429C178.121 217.654 182.046 219.451 184.525 219.944C184.627 220.731 184.83 221.344 184.356 222.071C184.237 222.253 184.006 222.408 183.833 222.538Z" fill="#E3715A"/>
<path id="Vector_7" d="M17.8779 135.932C18.4549 135.871 18.6279 135.904 19.1629 136.063C19.4689 136.633 19.6679 136.991 19.6749 137.646C17.9349 139.464 12.2309 140.342 9.70388 141.185C8.79288 141.132 8.80588 141.114 8.13388 140.492C7.93088 139.688 7.92088 139.562 8.15888 138.771C10.0209 137.001 15.2519 136.64 17.8779 135.932Z" fill="#E3715A"/>
<path id="Vector_8" d="M37.132 197.531C37.352 197.594 37.68 197.676 37.871 197.793C38.464 198.158 38.716 198.711 38.816 199.374C39.29 202.52 37.002 208.841 35.209 211.397C34.494 211.247 34.387 211.221 33.86 210.722C33.33 208.493 35.959 199.579 37.132 197.531Z" fill="#E3715A"/>
<path id="Vector_9" d="M184.444 217.478C181.051 218.135 176.606 216.012 173.836 214.132C172.95 213.53 171.822 212.87 171.62 211.8C171.969 211.408 172.121 211.247 172.643 211.091C173.733 210.765 175.303 211.853 176.215 212.433C178.877 214.13 182.825 213.857 184.967 215.938L184.444 217.478Z" fill="#E3715A"/>
<path id="Vector_10" d="M138.488 117.994C136.939 117.724 133.827 117.548 132.737 116.356C132.439 116.03 132.539 115.697 132.53 115.286C133.2 114.569 133.734 114.357 134.727 114.326C137.669 114.234 142.472 115.32 145.118 116.53C145.418 117.435 145.192 117.998 145.019 118.925L138.488 117.994Z" fill="#E3715A"/>
<path id="Vector_11" d="M86.3169 119.493C89.7519 119.938 94.4339 118.472 97.4889 120.298C97.9319 121.252 97.7579 121.732 97.6439 122.763C95.5079 122.724 93.3819 122.835 91.2479 122.891C89.4149 122.94 87.4079 123.096 86.0059 121.768C85.7939 120.839 85.9929 120.343 86.3169 119.493Z" fill="#E3715A"/>
<path id="Vector_12" d="M25.2829 163.436L25.7019 163.508L26.1049 164.098C26.1149 164.642 26.2049 164.971 25.9399 165.469C25.1309 166.994 16.6649 169.155 14.5339 169.805C14.3469 169.604 14.0729 169.328 13.9419 169.094C13.5599 168.41 13.5929 168.128 13.7959 167.438C15.9089 165.361 22.1989 164.256 25.2829 163.436Z" fill="#E3715A"/>
<path id="Vector_13" d="M87.9309 110.496C91.1029 110.596 98.2059 109.843 100.852 110.753C101.564 110.998 101.596 111.237 101.93 111.868C101.849 112.609 101.77 112.992 101.34 113.606C99.2409 113.555 89.2359 113.797 87.9849 113.042C87.6109 112.174 87.8039 111.397 87.9309 110.496Z" fill="#E3715A"/>
<path id="Vector_14" d="M23.517 154.473C23.809 154.402 23.922 154.36 24.252 154.358C25.082 154.352 25.547 154.618 26.157 155.127C26.254 155.548 26.421 155.752 26.172 156.15C24.884 158.207 16.136 159.629 13.615 160.006L12.294 160.032C11.572 159.622 11.415 159.546 11.001 158.838L11.272 158.112C13.443 156.161 20.488 155.192 23.517 154.473Z" fill="#E3715A"/>
<path id="Vector_15" d="M66.014 124.712L66.674 124.584C66.881 124.736 67.163 124.923 67.312 125.131C67.748 125.738 67.743 126.12 67.663 126.803C67.282 127.263 66.946 127.514 66.345 127.634C64.8 127.944 62.931 127.832 61.342 127.9C58.067 128.041 54.758 128.235 51.514 128.711C51.323 128.715 51.132 128.741 50.941 128.725C50.132 128.655 50.007 128.463 49.546 127.868C49.447 127.105 49.377 126.969 49.72 126.295C52.227 124.706 62.665 124.825 66.014 124.712Z" fill="#E3715A"/>
<path id="Vector_16" d="M138.488 117.994L145.019 118.925C145.062 119.48 145.114 119.888 145.273 120.428C146.293 120.393 147.243 120.344 148.121 120.971C148.759 121.427 148.741 121.478 148.848 122.212C147.536 125.078 143.191 121.957 140.967 123.145C141.516 123.916 142.163 124.315 142.245 125.283C141.613 125.715 141.098 125.734 140.348 125.717C137.874 125.66 132.514 125.3 130.65 123.461L130.738 122.899C132.929 121.127 134.472 122.635 136.652 121.821C136.742 121.167 136.749 121.418 136.679 120.783C136.664 120.639 136.642 120.495 136.624 120.351L137.16 119.722C137.778 119.445 138.128 119.249 138.57 118.733L138.488 117.994Z" fill="#E3715A"/>
<path id="Vector_17" d="M138.488 117.994L145.019 118.925C145.062 119.48 145.114 119.888 145.273 120.428L137.16 119.722C137.778 119.445 138.128 119.249 138.57 118.733L138.488 117.994Z" fill="#FD9781"/>
<path id="Vector_18" d="M193.833 167.513C194.815 167.536 195.191 167.523 195.896 168.288C196.105 168.515 196.298 168.757 196.496 168.993C196.456 169.071 196.418 169.149 196.376 169.225C193.384 174.682 185.658 177.184 187.861 184.812C188.656 187.565 190.625 188.389 191.942 190.598L190.582 192.372C189.798 191.856 188.995 191.336 188.29 190.713C186.118 188.79 184.644 186.121 184.481 183.201C184.133 176.974 189.929 171.728 193.833 167.513Z" fill="#E3715A"/>
<path id="Vector_19" d="M72.8018 160.132C73.3348 160.238 73.8038 160.384 74.3178 160.555C74.5178 160.805 74.5958 160.868 74.7128 161.213C75.7988 164.417 75.4908 186.731 74.6798 190.429C74.0508 193.3 72.4088 196.222 70.8618 198.7C70.6008 198.681 70.0118 198.651 69.7728 198.581C69.3948 198.471 69.1568 198.254 69.0898 197.873C68.6788 195.525 71.7238 190.669 72.1128 187.793C72.7998 182.705 71.3328 163.24 72.2478 160.884C72.3598 160.594 72.6168 160.383 72.8018 160.132Z" fill="#E3715A"/>
<path id="Vector_20" d="M196.496 168.993C198.118 170.778 199.108 173.304 198.945 175.74C198.521 182.074 192.428 186.838 191.942 190.598C190.625 188.389 188.656 187.565 187.861 184.812C185.658 177.184 193.384 174.682 196.376 169.225C196.418 169.149 196.456 169.071 196.496 168.993Z" fill="#FEAB8A"/>
<path id="Vector_21" d="M150.833 210.464C151.522 210.646 152.124 210.9 152.774 211.185C153.462 212.634 153.09 217.587 153.164 219.509C153.455 225.872 154.018 232.21 154.854 238.524C155.924 246.371 158.58 253.993 160.178 261.735C160.459 263.094 160.626 263.767 159.833 264.982C159.644 264.947 159.36 264.901 159.185 264.837C158.422 264.559 158.14 263.911 157.804 263.217C153.574 254.469 147.656 219.027 150.833 210.464Z" fill="#E3715A"/>
<path id="Vector_22" d="M0.918005 102.567C0.933005 101.643 1.061 100.807 1.34 99.921C2.126 97.426 3.317 94.93 5.766 93.705C5.97533 93.6023 6.189 93.5103 6.407 93.429C6.62567 93.347 6.84767 93.2763 7.073 93.217C7.29834 93.1576 7.526 93.1096 7.756 93.073C7.986 93.0363 8.21734 93.0113 8.45 92.998C8.68267 92.984 8.91566 92.982 9.14899 92.992C9.38166 93.0013 9.61333 93.0223 9.844 93.055C10.0747 93.0876 10.3033 93.1316 10.53 93.187C10.756 93.2423 10.979 93.309 11.199 93.387C14.889 94.688 16.718 98.269 18.244 101.59C17.714 106.647 18.389 113.313 14.065 116.987C13.021 117.874 11.754 118.284 10.393 118.124C8.116 117.857 6.144 116.424 4.803 114.619C2.692 111.781 0.787005 106.085 0.918005 102.567Z" fill="#E3715A"/>
<path id="Vector_23" d="M7.45379 96.3261C8.34579 96.1701 9.31678 95.944 10.2218 96.107C11.5128 96.339 12.7458 97.8691 13.3328 98.9471C15.0548 102.109 15.1948 107.461 14.1868 110.9C13.6008 112.897 12.8058 113.99 10.9648 114.953C10.5708 114.927 10.1698 114.912 9.78379 114.814C8.35879 114.451 7.28578 112.979 6.58178 111.786C4.67078 108.548 3.46278 103.382 4.59078 99.745C5.08578 98.148 5.97479 97.0781 7.45379 96.3261Z" fill="#FEAB8A"/>
<path id="Vector_24" d="M136.967 53.7282C138.214 48.5124 139.43 41.1235 144.11 37.7925C145.705 36.6571 147.571 36.0721 149.522 36.4428C153.116 37.1259 155.319 39.9106 157.29 42.7228C157.699 48.5589 158.483 57.3281 154.395 62.1091C152.923 63.8311 150.699 64.9431 148.428 65.0341C146.084 65.1291 143.781 64.1661 142.105 62.5451C139.804 60.3191 138.34 54.6967 136.967 53.7282Z" fill="#E3715A"/>
<path id="Vector_25" d="M147.829 39.7209C149.125 39.7722 151.371 39.9028 152.446 40.6596C153.485 41.3905 153.892 42.6437 154.142 43.8391C155.078 48.3144 154.962 56.1469 152.248 59.952C151.097 61.566 149.916 62.0399 148.02 62.41C147.257 62.27 146.49 62.1309 145.782 61.8009C143.79 60.8709 142.38 58.8649 141.735 56.8109C140.495 52.862 141.655 47.0083 143.566 43.3841C144.67 41.2898 145.582 40.4328 147.829 39.7209Z" fill="#FEAB8A"/>
<path id="Vector_26" d="M42.8909 55.6905C43.7499 52.3862 44.2229 48.8644 45.5519 45.7061C46.5699 43.2885 48.1629 41.5441 50.6739 40.6445C52.8069 39.88 55.2639 39.976 57.3109 40.9655C60.7669 42.6365 61.9479 46.4759 63.2029 49.8057C60.9199 54.6647 64.9789 60.842 59.8559 68.085C56.6029 69.817 52.5969 69.74 49.1029 68.721C48.4249 68.522 47.7689 68.267 47.1179 67.993C43.9879 64.262 44.6089 60.064 42.9229 55.8141C42.9069 55.7745 42.9009 55.7317 42.8909 55.6905Z" fill="#E3715A"/>
<path id="Vector_27" d="M52.391 43.2639C53.808 43.1935 55.097 43.2299 56.309 44.0643C58.445 45.534 59.406 48.2329 59.769 50.6901C60.317 54.4034 60.5969 62.158 58.1499 65.209C57.2819 66.291 55.567 66.264 54.285 66.398C53.139 66.414 51.567 66.491 50.502 66.048C49.082 65.456 48.0169 64.133 47.4429 62.739C45.7359 58.585 46.516 51.92 48.223 47.8431C49.186 45.5419 50.056 44.2212 52.391 43.2639Z" fill="#FEAB8A"/>
<path id="Vector_28" d="M81.9839 19.2518C84.0109 17.7911 86.2909 16.5332 88.8519 16.488C92.7079 16.42 95.4289 19.0206 98.0729 21.4507C98.0039 21.6134 97.9259 21.7726 97.8649 21.9388C97.2579 23.606 98.6069 27.6759 98.8399 29.5231C99.5149 34.8824 98.4469 42.8392 93.2979 45.725C91.0669 46.9756 88.9049 47.1328 86.4089 47.0028C83.4889 45.2997 81.2269 43.4751 80.3539 40.0283C79.8389 37.9967 80.0019 34.8069 78.4619 33.3526C79.1919 28.638 79.9839 23.6173 81.9839 19.2518Z" fill="#E3715A"/>
<path id="Vector_29" d="M88.3369 19.3655C88.9129 19.33 89.5239 19.2736 90.0949 19.3893C91.8019 19.7349 93.3699 21.3581 94.2449 22.7808C96.5479 26.5232 96.8769 33.1302 95.7799 37.3286C94.9219 40.6109 92.9739 42.4737 90.1379 44.1082C89.0339 44.2487 88.0749 44.3139 87.0439 43.8275C85.0779 42.9005 83.8739 41.1053 83.1639 39.1091C81.4999 34.4327 81.9769 27.1327 84.2229 22.7116C85.2389 20.7113 86.2579 20.09 88.3369 19.3655Z" fill="#FEAB8A"/>
</g>
<g id="nails">
<path id="Ellipse 4" d="M16.3765 101.439C17.2538 112.173 15.0634 115.853 11.25 116.164C7.4367 116.476 3.44452 113.301 2.56724 102.567C1.98132 95.3986 2.46185 84.4346 3.98172 77.8498L10.9292 77.282C13.5133 83.5314 15.7906 94.2699 16.3765 101.439Z" fill="#F08080"/>
<path id="Ellipse 9" d="M96.8373 27.6404C97.024 39.7803 94.0663 43.7603 89.4154 43.8318C84.7645 43.9034 80.1817 40.0393 79.9949 27.8994C79.8702 19.7914 81.3493 7.49186 83.7311 0.195031L92.2045 0.0647045C94.8281 7.28455 96.7126 19.5323 96.8373 27.6404Z" fill="#F08080"/>
<path id="Ellipse 8" d="M60.4157 53.2098C60.6686 63.843 58.014 67.3535 53.7973 67.4538C49.5806 67.5541 45.3985 64.2062 45.1456 53.573C44.9767 46.4713 46.2332 35.6848 48.3426 29.2734L56.0251 29.0907C58.4537 35.3942 60.2468 46.1081 60.4157 53.2098Z" fill="#F08080"/>
<path id="Ellipse 11" d="M204.07 178C195.797 188.5 191.418 191.842 188.104 189.232C184.791 186.622 183.703 181.376 190.285 173.022C194.682 167.442 202.525 159.931 208.237 156.336L214.07 161.5C210.867 167.409 208.466 172.42 204.07 178Z" fill="#F08080"/>
<path id="Ellipse 12" d="M156.574 49.2013C155.264 59.7565 152.123 62.8395 147.937 62.32C143.751 61.8005 140.106 57.8752 141.416 47.32C142.291 40.2704 145.116 29.785 148.144 23.7525L155.77 24.699C157.247 31.2906 157.449 42.1517 156.574 49.2013Z" fill="#F08080"/>
</g>
</g>
</svg>
